{"title":"Jurassic.World.2015.1080p.BlurayMUX.AVC.DTS-HD.MA","uid":12919143,"size":33718532578,"categoryP":"video","categoryS":"hd___movies","magnet":"?xt=urn:btih:54bb68ebc56e50a6e74fb47b6506cc590ccc44f7&amp;dn=Jurassic.World.2015.1080p.BlurayMUX.AVC.DTS-HD.MA&amp;tr=udp%3A%2F%2Ftracker.leechers-paradise.org%3A6969&amp;tr=udp%3A%2F%2Fzer0day.ch%3A1337&amp;tr=udp%3A%2F%2Fopen.demonii.com%3A1337&amp;tr=udp%3A%2F%2Ftracker.coppersurfer.tk%3A6969&amp;tr=udp%3A%2F%2Fexodus.desync.com%3A6969","seeders":0,"leechers":1,"uploader":"cfiggis","files":1,"time":1449395226,"description":"This is a BlurayMUX of the following Bluray -- Jurassic World (2015)\r\n\r\n\r\n\r\nIMDB: http://www.imdb.com/title/tt0369610/\r\n\r\n\r\nThe content is a MUX, which means the audio &amp; video streams are untouched, thus preserving the full, original quality of the content. \r\n\r\nThis is the original content - untouched in any way. This means this is the HIGHEST possible quality. \r\n\r\nNote: Once you transcode it (e.g. AVC to HEVC or TrueHD to HE-AAC), the quality will be reduced. This is because you’re converting from a lossy format to another lossy format. :) \r\n\r\n\r\n\r\nSource: Blu-ray disk\r\nVideo: AVC   \r\nAudio: DTS-HD MA 7.1\r\nSubtitles: English\r\n\r\n\r\n\r\nContent was viewed before uploading, so I know there are zero artifacts.\r\n\r\nEnjoy! :)\r\n\r\n\r\n\r\nBelow is a sample of the MediaInfo for the content:\r\n\r\nGeneral\r\nFormat : Matroska\r\nFormat version : Version 2\r\nFile size : 31.4 GiB\r\nDuration : 2h 4mn\r\nOverall bit rate mode : Variable\r\nOverall bit rate : 36.1 Mbps\r\nMovie name : Jurassic World\r\nAttachements : cover.jpg\r\n\r\nVideo\r\nID : 1\r\nFormat : AVC\r\nFormat/Info : Advanced Video Codec\r\nFormat profile :   \r\nFormat settings, CABAC : Yes\r\nFormat settings, ReFrames : 4 frames\r\nCodec ID : V_MPEG4/ISO/AVC\r\nDuration : 2h 4mn\r\nBit rate mode : Variable\r\nMaximum bit rate : 35.0 Mbps\r\nWidth : 1 920 pixels\r\nHeight : 1 080 pixels\r\nDisplay aspect ratio : 16:9\r\nFrame rate mode : Constant\r\nFrame rate : 23.976 fps\r\nColor space : YUV\r\nChroma subsampling : 4:2:0\r\nBit depth : 8 bits\r\nScan type : Progressive\r\nLanguage : English\r\nDefault : No\r\nForced : No\r\n\r\nAudio #1\r\nID : 2\r\nFormat : DTS\r\nFormat/Info : Digital Theater Systems\r\nFormat profile : MA / Core\r\nMode : 16\r\nFormat settings, Endianness : Big\r\nCodec ID : A_DTS\r\nDuration : 2h 4mn\r\nBit rate mode : Variable\r\nBit rate : Unknown / 1 509 Kbps\r\nChannel(s) : 8 channels / 6 channels\r\nChannel positions : Front: L C R, Side: L R, Back: L R, LFE / Front: L C R, Side: L R, LFE\r\nSampling rate : 48.0 KHz\r\nBit depth : 24 bits\r\nCompression mode : Lossless / Lossy\r\nTitle : Surround 7.1\r\nLanguage : English\r\nDefault : Yes\r\nForced : No\r\n\r\nAudio #2\r\nID : 3\r\nFormat : DTS\r\nFormat/Info : Digital Theater Systems\r\nMode : 16\r\nFormat settings, Endianness : Big\r\nCodec ID : A_DTS\r\nDuration : 2h 4mn\r\nBit rate mode : Constant\r\nBit rate : 1 509 Kbps\r\nChannel(s) : 6 channels\r\nChannel positions : Front: L C R, Side: L R, LFE\r\nSampling rate : 48.0 KHz\r\nBit depth : 24 bits\r\nCompression mode : Lossy\r\nStream size : 1.31 GiB (4%)\r\nTitle : Surround 5.1\r\nLanguage : English\r\nDefault : No\r\nForced : No\r\n\r\nAudio #3\r\nID : 4\r\nFormat : AC-3\r\nFormat/Info : Audio Coding 3\r\nFormat profile : Dolby Digital\r\nMode extension : CM (complete main)\r\nFormat settings, Endianness : Big\r\nCodec ID : A_AC3\r\nDuration : 2h 4mn\r\nBit rate mode : Constant\r\nBit rate : 192 Kbps\r\nChannel(s) : 2 channels\r\nChannel positions : Front: L R\r\nSampling rate : 48.0 KHz\r\nCompression mode : Lossy\r\nStream size : 171 MiB (1%)\r\nTitle : Stereo\r\nLanguage : English\r\nDefault : No\r\nForced : No\r\n\r\nText\r\nID : 5\r\nFormat : PGS\r\nCodec ID : S_HDMV/PGS\r\nCodec ID/Info : Picture based subtitle format used on BDs/HD-DVDs\r\nLanguage : English\r\nDefault : No\r\nForced : No","torrent":{"xt":"urn:btih:54bb68ebc56e50a6e74fb47b6506cc590ccc44f7","amp;dn":"Jurassic.World.2015.1080p.BlurayMUX.AVC.DTS-HD.MA","amp;tr":["udp%3A%2F%2Ftracker.leechers-paradise.org%3A6969","udp%3A%2F%2Fzer0day.ch%3A1337","udp%3A%2F%2Fopen.demonii.com%3A1337","udp%3A%2F%2Ftracker.coppersurfer.tk%3A6969","udp%3A%2F%2Fexodus.desync.com%3A6969"],"infoHash":"54bb68ebc56e50a6e74fb47b6506cc590ccc44f7","infoHashBuffer":{"type":"Buffer","data":[84,187,104,235,197,110,80,166,231,79,180,123,101,6,204,89,12,204,68,247]},"announce":[],"urlList":[]}}